<?xml version="1.0" encoding="utf-8"?>
<!-- Generator: Adobe Illustrator 18.0.0, SVG Export Plug-In . SVG Version: 6.00 Build 0)  -->
<!DOCTYPE svg PUBLIC "-//W3C//DTD SVG 1.1//EN" "http://www.w3.org/Graphics/SVG/1.1/DTD/svg11.dtd">
<svg version="1.1"
	 id="svg1923" sodipodi:docname="Bart-logo.svg" inkscape:version="0.41.1" xmlns:svg="http://www.w3.org/2000/svg" xmlns:rdf="http://www.w3.org/1999/02/22-rdf-syntax-ns#" xmlns:inkscape="http://www.inkscape.org/namespaces/inkscape" xmlns:sodipodi="http://inkscape.sourceforge.net/DTD/sodipodi-0.dtd" xmlns:cc="http://web.resource.org/cc/" xmlns:dc="http://purl.org/dc/elements/1.1/" sodipodi:docbase="/home/molotov/images/wikipedia/svg" sodipodi:version="0.32"
	 xmlns="http://www.w3.org/2000/svg" xmlns:xlink="http://www.w3.org/1999/xlink" x="0px" y="0px" viewBox="0 0 17 16"
	 enable-background="new 0 0 17 16" xml:space="preserve">
<sodipodi:namedview  height="120px" width="190px" inkscape:window-y="22" inkscape:window-x="20" inkscape:window-height="783" inkscape:current-layer="svg1923" inkscape:pageshadow="2" inkscape:pageopacity="0.0" inkscape:window-width="1014" id="base" borderopacity="1.0" inkscape:cx="95.000000" inkscape:zoom="4.8526316" pagecolor="#ffffff" bordercolor="#666666" inkscape:cy="60.000001" objecttolerance="10.0" gridtolerance="10.0" guidetolerance="10.0">
	</sodipodi:namedview>
<g id="XMLID_1_">
	<g>
		<path fill="#FFFFFF" d="M10.1,9.8c-0.2-0.8,0.2-1.6,1-2c0.2-0.2,0.8-0.3,1-0.3s0.6,0.1,0.8,0.2c0.7,0.3,1.1,0.9,1.2,1.6
			c0.1,0.8-0.4,1.8-1.2,2.2C11.7,12,10.3,11.2,10.1,9.8z"/>
		<path fill="#0083D2" d="M12.1,7.4c-0.3,0-0.8,0.2-1,0.3c-0.8,0.4-1.1,1.3-1,2c0.2,1.4,1.6,2.2,2.8,1.6c0.9-0.4,1.3-1.4,1.2-2.2
			c-0.1-0.8-0.6-1.3-1.2-1.6C12.7,7.5,12.4,7.4,12.1,7.4z M12.1,5.9c0.9,0,1.3,0.1,2.2,0.4V5.9h1.6H17v3.5v3.7h-1.3h-1.4v-0.4
			c0-0.2-0.2-0.1-0.5,0C13.3,12.9,13,13,12.2,13c-1.2,0-2-0.2-2.7-0.7L9,12.1L8.9,12c0.7-0.6,1-1.5,1-2.6c0-0.8-0.2-1-0.4-1.5
			c-0.1-0.4-0.4-0.7-0.7-1c0.1-0.1,0.4-0.3,0.8-0.5C10.5,6,11,5.9,12.1,5.9z"/>
		<path d="M9.5,7.9c0.2,0.5,0.4,0.8,0.4,1.5c-0.1,1.1-0.4,1.9-1,2.6l-0.6-0.5L8.8,7c0,0,0,0,0-0.1C9.1,7.2,9.4,7.5,9.5,7.9z"/>
		<path d="M8.3,11.5L8.9,12c-0.1,0.1-0.3,0.2-0.5,0.4C7.2,13,5.7,13.3,4.3,13c-0.3-0.1-0.9-0.2-1-0.3c-0.4-0.2-0.4-0.5-0.5-0.2V13
			H1.2H0V7.7V2.8h1.2h1.6v1.7v1.9c0.3-0.1,0.7-0.4,1-0.5c0.6-0.2,1.9-0.3,2.7-0.1C7.4,6,8.2,6.4,8.8,6.9c0,0,0,0.1,0,0.1L8.3,11.5z
			 M6.5,11.2c1-0.7,1.4-2.2,0.7-3C6.6,7.6,5.9,7.3,5.3,7.4c-1,0-2,1-1.8,2.3C3.7,11.2,5.2,11.9,6.5,11.2z"/>
		<path fill="#FFFFFF" d="M7.2,8.2c0.8,0.9,0.4,2.4-0.7,3c-1.3,0.7-2.8,0-3-1.5C3.3,8.4,4.2,7.4,5.3,7.4C5.9,7.3,6.6,7.6,7.2,8.2z"
			/>
	</g>
	<g>
	</g>
</g>
</svg>
