<?xml version="1.0" encoding="utf-8"?>
<!-- Generator: Adobe Illustrator 18.0.0, SVG Export Plug-In . SVG Version: 6.00 Build 0)  -->
<!DOCTYPE svg PUBLIC "-//W3C//DTD SVG 1.1//EN" "http://www.w3.org/Graphics/SVG/1.1/DTD/svg11.dtd">
<svg version="1.1"
	 id="svg1923" sodipodi:docname="Bart-logo.svg" inkscape:version="0.41.1" xmlns:svg="http://www.w3.org/2000/svg" xmlns:rdf="http://www.w3.org/1999/02/22-rdf-syntax-ns#" xmlns:inkscape="http://www.inkscape.org/namespaces/inkscape" xmlns:sodipodi="http://inkscape.sourceforge.net/DTD/sodipodi-0.dtd" xmlns:cc="http://web.resource.org/cc/" xmlns:dc="http://purl.org/dc/elements/1.1/" sodipodi:docbase="/home/molotov/images/wikipedia/svg" sodipodi:version="0.32"
	 xmlns="http://www.w3.org/2000/svg" xmlns:xlink="http://www.w3.org/1999/xlink" x="0px" y="0px" viewBox="0 0 12 7.3"
	 enable-background="new 0 0 12 7.3" xml:space="preserve">
<sodipodi:namedview  height="120px" width="190px" inkscape:window-y="22" inkscape:window-x="20" inkscape:window-height="783" inkscape:current-layer="svg1923" inkscape:pageshadow="2" inkscape:pageopacity="0.0" inkscape:window-width="1014" id="base" borderopacity="1.0" inkscape:cx="95.000000" inkscape:zoom="4.8526316" pagecolor="#ffffff" bordercolor="#666666" inkscape:cy="60.000001" objecttolerance="10.0" gridtolerance="10.0" guidetolerance="10.0">
	</sodipodi:namedview>
<g id="XMLID_1_">
	<g>
		<path fill="#FFFFFF" d="M10,4.5C10.1,5,9.7,5.7,9.1,6c-0.9,0.4-1.8-0.2-2-1.1C7,4.3,7.4,3.6,7.9,3.4c0.2-0.1,0.4-0.1,0.6-0.2
			c0.2,0,0.4,0,0.6,0.1C9.6,3.6,9.9,3.9,10,4.5z"/>
		<path fill="#FFFFFF" d="M5.1,3.8c0.5,0.6,0.2,1.7-0.5,2.1c-0.9,0.5-2,0-2.1-1.1C2.3,3.9,3,3.3,3.7,3.2C4.2,3.2,4.7,3.4,5.1,3.8z"
			/>
		<path fill="#0083D2" d="M9.1,6C9.7,5.7,10.1,5,10,4.5C9.9,3.9,9.6,3.6,9.1,3.4C8.9,3.3,8.7,3.2,8.5,3.2c-0.2,0-0.4,0.1-0.6,0.2
			C7.4,3.6,7,4.3,7.1,4.8C7.3,5.8,8.3,6.4,9.1,6z M6.8,2.6c0.7-0.3,0.9-0.3,1.8-0.3c0.7,0,1,0,1.6,0.3V2.2h1.1H12v2.4l0,2.5h-0.9h-1
			l0-0.2c0-0.1-0.2-0.1-0.4,0C9.4,7.1,9.2,7.2,8.6,7.2c-0.8,0-1.4-0.1-1.9-0.4L6.3,6.6L6.2,6.5C6.8,6.1,7,5.4,7,4.6
			c0-0.6-0.2-0.7-0.3-1.1C6.6,3.3,6.5,3.1,6.2,2.9C6.3,2.8,6.5,2.7,6.8,2.6z"/>
		<path d="M6.7,3.6C6.8,3.9,7,4.1,7,4.6c0,0.8-0.2,1.4-0.8,1.8L5.9,6.1L6.2,3c0,0,0,0,0-0.1C6.5,3.1,6.6,3.3,6.7,3.6z"/>
		<path d="M4.6,5.9c0.7-0.4,1-1.5,0.5-2.1C4.7,3.4,4.2,3.2,3.7,3.2C3,3.3,2.3,3.9,2.5,4.8C2.6,5.9,3.7,6.4,4.6,5.9z M6.2,3L5.9,6.1
			l0.4,0.4C6.1,6.6,6,6.6,5.9,6.7C5,7.2,4,7.4,3,7.2C2.8,7.1,2.4,7,2.3,7C2,6.8,2.1,6.6,2,6.8l0,0.3H0.9H0l0-3.7V0h0.9H2v1.2v1.3
			c0.2-0.1,0.5-0.2,0.7-0.3C3.1,2,4.1,2,4.6,2.1C5.3,2.3,5.8,2.5,6.2,3C6.2,2.9,6.2,2.9,6.2,3z"/>
	</g>
	<g>
	</g>
</g>
</svg>
