<?xml version="1.0" encoding="UTF-8" standalone="no"?>
<!-- Created with Inkscape (http://www.inkscape.org/) -->

<svg
   xmlns:dc="http://purl.org/dc/elements/1.1/"
   xmlns:cc="http://creativecommons.org/ns#"
   xmlns:rdf="http://www.w3.org/1999/02/22-rdf-syntax-ns#"
   xmlns:svg="http://www.w3.org/2000/svg"
   xmlns="http://www.w3.org/2000/svg"
   xmlns:sodipodi="http://sodipodi.sourceforge.net/DTD/sodipodi-0.dtd"
   xmlns:inkscape="http://www.inkscape.org/namespaces/inkscape"
   width="12"
   height="12"
   id="svg4764"
   version="1.1"
   inkscape:version="0.48.4 r9939"
   sodipodi:docname="subway-12.svg">
  <defs
     id="defs4766" />
  <sodipodi:namedview
     id="base"
     pagecolor="#ffffff"
     bordercolor="#666666"
     borderopacity="1.0"
     inkscape:pageopacity="0.0"
     inkscape:pageshadow="2"
     inkscape:zoom="22.627417"
     inkscape:cx="8.6905726"
     inkscape:cy="4.8816249"
     inkscape:document-units="px"
     inkscape:current-layer="layer1"
     showgrid="false"
     showguides="false"
     inkscape:guide-bbox="true"
     inkscape:window-width="960"
     inkscape:window-height="1025"
     inkscape:window-x="0"
     inkscape:window-y="27"
     inkscape:window-maximized="0"
     inkscape:snap-bbox="true">
    <inkscape:grid
       type="xygrid"
       id="grid4772"
       empspacing="2"
       visible="true"
       enabled="true"
       snapvisiblegridlinesonly="true"
       color="#ff00ff"
       opacity="0.1254902"
       empcolor="#ff00ff"
       empopacity="0.25098039" />
    <sodipodi:guide
       orientation="0,1"
       position="2,12"
       id="guide4789" />
    <sodipodi:guide
       orientation="1,0"
       position="12,10"
       id="guide4791" />
    <sodipodi:guide
       orientation="0,1"
       position="10,0"
       id="guide4793" />
    <sodipodi:guide
       orientation="1,0"
       position="0,9"
       id="guide4795" />
    <sodipodi:guide
       orientation="0,1"
       position="5,11"
       id="guide4797" />
    <sodipodi:guide
       orientation="1,0"
       position="11,7"
       id="guide4799" />
    <sodipodi:guide
       orientation="0,1"
       position="9,2"
       id="guide4801" />
    <sodipodi:guide
       orientation="1,0"
       position="2,5"
       id="guide4803" />
  </sodipodi:namedview>
  <metadata
     id="metadata4769">
    <rdf:RDF>
      <cc:Work
         rdf:about="">
        <dc:format>image/svg+xml</dc:format>
        <dc:type
           rdf:resource="http://purl.org/dc/dcmitype/StillImage" />
        <dc:title />
      </cc:Work>
    </rdf:RDF>
  </metadata>
  <g
     inkscape:label="Layer 1"
     inkscape:groupmode="layer"
     id="layer1"
     transform="translate(0,-1040.3622)">
    <path
       style="fill:#666677;fill-opacity:1;stroke:#ffffff;stroke-width:2;stroke-miterlimit:4;stroke-dasharray:none;stroke-linejoin:round;stroke-linecap:round"
       d="M 5.5 1 L 5.5 1.5 L 5 1.5 C 4.5 1.5 4 2 4 2.5 L 4 7 C 4 7.5 4.5 8 5 8 L 8 8 C 8.5 8 9 7.5 9 7 L 9 2.5 C 9 2 8.5 1.5 8 1.5 L 7.5 1.5 L 7.5 1 L 5.5 1 z M 5.625 2.5 C 5.7421875 2.4921875 5.875 2.5 6 2.5 L 7 2.5 C 7.5 2.5 8 2.5 8 3 L 8 5 L 5 5 L 5 3 C 5 2.625 5.2734375 2.5234375 5.625 2.5 z M 4.5 8.5 L 3.5 9 L 3.5 10 L 4.5 10 L 5.5 9 L 5.5 8.5 L 4.5 8.5 z M 7.46875 8.5 L 7.5 9 L 8.5 10 L 9.5 10 L 9.5 9 L 8.5 8.5 L 7.46875 8.5 z "
       transform="translate(0,1040.3622)"
       id="path5471" />
    <path
       style="fill:#666677;fill-opacity:1;stroke:none"
       d="M 5,1.5 C 4.5,1.5 4,2 4,2.5 L 4,7 C 4,7.5 4.5,8 5,8 L 8,8 C 8.5,8 9,7.5 9,7 L 9,2.5 C 9,2 8.5,1.5 8,1.5 l -0.5,0 0,-0.5 -2,0 0,0.5 z m 1,1 1,0 c 0.5,0 1,0 1,0.5 L 8,5 5,5 5,3 C 5,2.5 5.5,2.5 6,2.5 z"
       transform="translate(0,1040.3622)"
       id="path3108"
       inkscape:connector-curvature="0"
       sodipodi:nodetypes="cccccccccccccccccccc" />
    <path
       style="fill:#666677;fill-opacity:1;stroke:none"
       d="m 4.5,1048.8622 -1,0.5 0,1 1,0 1,-1 0,-0.5 z"
       id="path3266"
       inkscape:connector-curvature="0"
       sodipodi:nodetypes="ccccccc" />
    <path
       sodipodi:nodetypes="ccccccc"
       inkscape:connector-curvature="0"
       id="path3268"
       d="m 8.5,1048.8622 -1.02167,0 0.02167,0.5 1,1 1,0 0,-1 z"
       style="fill:#666677;fill-opacity:1;stroke:none" />
    <rect
       style="color:#000000;fill:#ffffff;fill-opacity:0;fill-rule:nonzero;stroke:none;stroke-width:1;marker:none;visibility:visible;display:inline;overflow:visible;enable-background:accumulate"
       id="rect6093"
       width="12"
       height="12"
       x="0"
       y="0"
       transform="translate(0,1040.3622)" />
    <path
       sodipodi:type="arc"
       style="color:#000000;fill:#ffffff;fill-opacity:1;fill-rule:nonzero;stroke:none;stroke-width:1;marker:none;visibility:visible;display:inline;overflow:visible;enable-background:accumulate"
       id="path3276"
       sodipodi:cx="5.5"
       sodipodi:cy="6.5"
       sodipodi:rx="0.5"
       sodipodi:ry="0.5"
       d="m 6,6.5 a 0.5,0.5 0 1 1 -1,0 0.5,0.5 0 1 1 1,0 z"
       transform="matrix(1.25,0,0,1.25,-1.25,1038.6122)" />
    <path
       transform="matrix(1.25,0,0,1.25,0.5,1038.6122)"
       d="m 6,6.5 a 0.5,0.5 0 1 1 -1,0 0.5,0.5 0 1 1 1,0 z"
       sodipodi:ry="0.5"
       sodipodi:rx="0.5"
       sodipodi:cy="6.5"
       sodipodi:cx="5.5"
       id="path3278"
       style="color:#000000;fill:#ffffff;fill-opacity:1;fill-rule:nonzero;stroke:none;stroke-width:1;marker:none;visibility:visible;display:inline;overflow:visible;enable-background:accumulate"
       sodipodi:type="arc" />
  </g>
</svg>
