<?xml version="1.0" encoding="UTF-8" standalone="no"?>
<!-- Generator: Adobe Illustrator 13.0.0, SVG Export Plug-In . SVG Version: 6.00 Build 14948)  -->

<svg
   xmlns:dc="http://purl.org/dc/elements/1.1/"
   xmlns:cc="http://creativecommons.org/ns#"
   xmlns:rdf="http://www.w3.org/1999/02/22-rdf-syntax-ns#"
   xmlns:svg="http://www.w3.org/2000/svg"
   xmlns="http://www.w3.org/2000/svg"
   xmlns:sodipodi="http://sodipodi.sourceforge.net/DTD/sodipodi-0.dtd"
   xmlns:inkscape="http://www.inkscape.org/namespaces/inkscape"
   version="1.1"
   id="Layer_1"
   x="0px"
   y="0px"
   width="12"
   height="12"
   viewBox="0 0 12 12"
   enable-background="new 0 0 400 400"
   xml:space="preserve"
   sodipodi:version="0.32"
   inkscape:version="0.48.2 r9819"
   sodipodi:docname="metro-12.svg"
   inkscape:output_extension="org.inkscape.output.svg.inkscape"><metadata
   id="metadata8"><rdf:RDF><cc:Work
       rdf:about=""><dc:format>image/svg+xml</dc:format><dc:type
         rdf:resource="http://purl.org/dc/dcmitype/StillImage" /><dc:title /></cc:Work></rdf:RDF></metadata><defs
   id="defs6"><inkscape:perspective
     sodipodi:type="inkscape:persp3d"
     inkscape:vp_x="0 : 200 : 1"
     inkscape:vp_y="0 : 1000 : 0"
     inkscape:vp_z="400 : 200 : 1"
     inkscape:persp3d-origin="200 : 133.33333 : 1"
     id="perspective10" /></defs><sodipodi:namedview
   inkscape:window-height="651"
   inkscape:window-width="1166"
   inkscape:pageshadow="2"
   inkscape:pageopacity="0.0"
   guidetolerance="10.0"
   gridtolerance="10.0"
   objecttolerance="10.0"
   borderopacity="1.0"
   bordercolor="#666666"
   pagecolor="#ffffff"
   id="base"
   showgrid="false"
   inkscape:zoom="16"
   inkscape:cx="9.0039485"
   inkscape:cy="6.5367118"
   inkscape:window-x="661"
   inkscape:window-y="158"
   inkscape:current-layer="Layer_1"
   inkscape:window-maximized="0"><inkscape:grid
     type="xygrid"
     id="grid3142"
     empspacing="2"
     visible="true"
     enabled="true"
     snapvisiblegridlinesonly="true" /></sodipodi:namedview>

<g
   id="g3807"><path
     d="M 12,6.0297427 C 12,2.6998285 9.2098183,0 6.0147737,0 2.6996979,0 0,2.6998285 0,6.0297427 0,9.3294853 2.6996979,12 6.0147737,12 9.3298483,12 12,9.344314 12,6.0297427"
     id="path3019"
     style="fill:#ffffff;fill-opacity:1;display:inline"
     inkscape:connector-curvature="0" /><path
     inkscape:connector-curvature="0"
     style="fill:#104e81;fill-opacity:1;display:inline"
     id="path3076"
     d="M 10.999999,6.0247855 C 10.999999,3.2498571 8.674848,1 6.012311,1 3.249748,1 1,3.2498571 1,6.0247855 1,8.7745711 3.249748,11 6.012311,11 8.774873,11 10.999999,8.7869283 10.999999,6.0247855" /><path
     sodipodi:type="arc"
     style="fill:#ffffff;fill-opacity:1;stroke:none;display:inline"
     id="path3099"
     sodipodi:cx="6.1351843"
     sodipodi:cy="8.5"
     sodipodi:rx="2.8648155"
     sodipodi:ry="5"
     d="m 8.9999998,8.5 a 2.8648155,5 0 1 1 -5.729631,0 2.8648155,5 0 1 1 5.729631,0 z"
     transform="matrix(1.3962505,0,0,0.8,-2.5662541,-0.8)" /><path
     sodipodi:nodetypes="ccccccccccccccccccccc"
     inkscape:connector-curvature="0"
     id="rect3032"
     d="m 4,3.5 0,5 1,0 0,-2.5 0.5,0.5 0,1 1,0 0,-1 L 7,6 7,8.5 8,8.5 8,3.5 7.5,3.5 7,4 6.5,4.5 6,5.5 6,5.5 5.5,4.5 5,4 4.5,3.5 z"
     style="fill:#104e81;fill-opacity:1;stroke:none;" /></g></svg>