<?xml version="1.0" encoding="UTF-8" standalone="no"?>
<!-- Generator: Adobe Illustrator 13.0.0, SVG Export Plug-In . SVG Version: 6.00 Build 14948)  -->

<svg
   xmlns:dc="http://purl.org/dc/elements/1.1/"
   xmlns:cc="http://creativecommons.org/ns#"
   xmlns:rdf="http://www.w3.org/1999/02/22-rdf-syntax-ns#"
   xmlns:svg="http://www.w3.org/2000/svg"
   xmlns="http://www.w3.org/2000/svg"
   xmlns:sodipodi="http://sodipodi.sourceforge.net/DTD/sodipodi-0.dtd"
   xmlns:inkscape="http://www.inkscape.org/namespaces/inkscape"
   version="1.1"
   id="Layer_1"
   x="0px"
   y="0px"
   width="18"
   height="18"
   viewBox="0 0 18 18"
   enable-background="new 0 0 400 400"
   xml:space="preserve"
   sodipodi:version="0.32"
   inkscape:version="0.48.2 r9819"
   sodipodi:docname="metro-18.svg"
   inkscape:output_extension="org.inkscape.output.svg.inkscape"><metadata
   id="metadata8"><rdf:RDF><cc:Work
       rdf:about=""><dc:format>image/svg+xml</dc:format><dc:type
         rdf:resource="http://purl.org/dc/dcmitype/StillImage" /><dc:title /></cc:Work></rdf:RDF></metadata><defs
   id="defs6"><inkscape:perspective
     sodipodi:type="inkscape:persp3d"
     inkscape:vp_x="0 : 200 : 1"
     inkscape:vp_y="0 : 1000 : 0"
     inkscape:vp_z="400 : 200 : 1"
     inkscape:persp3d-origin="200 : 133.33333 : 1"
     id="perspective10" /></defs><sodipodi:namedview
   inkscape:window-height="756"
   inkscape:window-width="1280"
   inkscape:pageshadow="2"
   inkscape:pageopacity="0.0"
   guidetolerance="10.0"
   gridtolerance="10.0"
   objecttolerance="10.0"
   borderopacity="1.0"
   bordercolor="#666666"
   pagecolor="#ffffff"
   id="base"
   showgrid="true"
   inkscape:zoom="16"
   inkscape:cx="10.295031"
   inkscape:cy="2.539262"
   inkscape:window-x="221"
   inkscape:window-y="131"
   inkscape:current-layer="layer1"
   inkscape:window-maximized="0"
   inkscape:snap-bbox="true"><inkscape:grid
     type="xygrid"
     id="grid3142"
     empspacing="2"
     visible="true"
     enabled="true"
     snapvisiblegridlinesonly="true" /></sodipodi:namedview>

<g
   inkscape:groupmode="layer"
   id="layer1"
   inkscape:label="Layer"
   style="display:inline"><g
     id="g3030"><path
       d="M 18,9.0446376 C 18,4.0497283 13.814729,0 9.0221622,0 4.0495491,0 1.8285714e-6,4.0497283 1.8285714e-6,9.0446376 1.8285714e-6,13.994277 4.0495491,18 9.0221622,18 13.994774,18 18,14.016436 18,9.0446376"
       id="path3030"
       style="fill:#ffffff;fill-opacity:1"
       inkscape:connector-curvature="0" /><g
       id="g3103"><path
         inkscape:connector-curvature="0"
         style="fill:#14489e;fill-opacity:1"
         id="path3076"
         d="M 16,9.034718 C 16,5.1497884 12.744789,1.9999996 9.0172372,1.9999996 c -3.867588,0 -7.017236,3.1497888 -7.017236,7.0347184 C 2.0000012,12.884437 5.1496492,16 9.0172372,16 12.884824,16 16,12.901672 16,9.034718" /><path
         sodipodi:type="arc"
         style="fill:#ffffff;fill-opacity:1;stroke:none"
         id="path3099"
         sodipodi:cx="6.1351843"
         sodipodi:cy="8.5"
         sodipodi:rx="2.8648155"
         sodipodi:ry="5"
         d="m 8.9999998,8.5 a 2.8648155,5 0 1 1 -5.729631,0 2.8648155,5 0 1 1 5.729631,0 z"
         transform="matrix(2.0943757,0,0,1.2,-3.849381,-1.2)" /><path
         sodipodi:nodetypes="ccccccccccccccccc"
         inkscape:connector-curvature="0"
         style="fill:#14489e;fill-opacity:1"
         id="path3080"
         d="M 12.5,12 12.5,6 12,5 11,5 9,9 9,9 7,5 6,5 5.5,6 l 0,6 1.5,1 0,-5 1.5,3 1,0 1.5,-3 0,5 z" /></g><path
       inkscape:connector-curvature="0"
       style="fill:#104e81;fill-opacity:1"
       id="path3021"
       d="M 16,9.034718 C 16,5.1497884 12.744789,1.9999996 9.0172372,1.9999996 c -3.867588,0 -7.017236,3.1497888 -7.017236,7.0347184 C 2.0000012,12.884437 5.1496492,16 9.0172372,16 12.884824,16 16,12.901672 16,9.034718" /><path
       sodipodi:type="arc"
       style="fill:#ffffff;fill-opacity:1;stroke:none"
       id="path3023"
       sodipodi:cx="6.1351843"
       sodipodi:cy="8.5"
       sodipodi:rx="2.8648155"
       sodipodi:ry="5"
       d="m 8.9999998,8.5 a 2.8648155,5 0 1 1 -5.729631,0 2.8648155,5 0 1 1 5.729631,0 z"
       transform="matrix(2.0943757,0,0,1.2,-3.849381,-1.2)" /><path
       sodipodi:nodetypes="ccccccccccccccccc"
       inkscape:connector-curvature="0"
       style="fill:#104e81;fill-opacity:1"
       id="path3025"
       d="M 12.5,12 12.5,6 12,5 11,5 9,9 9,9 7,5 6,5 5.5,6 l 0,6 1.5,1 0,-5 1.5,3 1,0 1.5,-3 0,5 z" /></g></g><g
   inkscape:groupmode="layer"
   id="layer2"
   inkscape:label="original"
   style="display:none"
   sodipodi:insensitive="true"><path
     inkscape:connector-curvature="0"
     style="fill:#14489e;fill-opacity:1"
     id="path3042"
     d="M 16.018046,9.0347184 C 16.018046,5.1497888 12.762835,2 9.0352826,2 5.1676949,2 2.0180466,5.1497888 2.0180466,9.0347184 2.0180466,12.884437 5.1676949,16 9.0352826,16 12.90287,16 16.018046,12.901672 16.018046,9.0347184" /><path
     inkscape:connector-curvature="0"
     style="fill:#ffffff;fill-opacity:1"
     id="path3044"
     d="m 15.055599,9.0347184 c 0,3.2901406 -2.712272,6.0367786 -6.0202814,6.0367786 -3.3244367,0 -6.0547881,-2.711709 -6.0547881,-6.0367786 0,-3.3418141 2.7303514,-6.107623 6.0547881,-6.107623 3.3079744,0 6.0202814,2.7827989 6.0202814,6.107623 z" /><path
     inkscape:connector-curvature="0"
     style="fill:#14489e;fill-opacity:1"
     id="path3046"
     d="m 12.5,12.132025 0,-6.1070604 c 0,-0.349824 -0.191779,-0.7173767 -0.769612,-0.7173767 -0.436779,0 -0.612448,0.1925526 -0.804719,0.5778692 l -1.8903864,3.9372005 -0.017236,0 L 7.1103893,5.8854571 C 6.9178357,5.5001405 6.7430822,5.3075879 6.3052128,5.3075879 c -0.5773771,0 -0.769965,0.3675527 -0.769965,0.7173767 l 0,6.1070604 c 0,0.333431 0.2628345,0.52514 0.5774121,0.52514 0.2797891,0 0.5948591,-0.191709 0.5948591,-0.52514 l 0,-4.5495428 0.017765,0 1.732377,3.5348588 c 0.1225179,0.24507 0.2803515,0.385633 0.5603866,0.385633 0.2795427,0 0.4373771,-0.140563 0.5601057,-0.385633 l 1.7320957,-3.5348588 0.0178,0 0,4.5495428 c 0,0.333431 0.314542,0.52514 0.594613,0.52514 0.315563,0 0.577342,-0.191709 0.577342,-0.52514 z" /></g></svg>