<?xml version="1.0" encoding="UTF-8" standalone="no"?>
<svg
   xmlns:dc="http://purl.org/dc/elements/1.1/"
   xmlns:cc="http://creativecommons.org/ns#"
   xmlns:rdf="http://www.w3.org/1999/02/22-rdf-syntax-ns#"
   xmlns:svg="http://www.w3.org/2000/svg"
   xmlns="http://www.w3.org/2000/svg"
   xmlns:sodipodi="http://sodipodi.sourceforge.net/DTD/sodipodi-0.dtd"
   xmlns:inkscape="http://www.inkscape.org/namespaces/inkscape"
   width="18"
   height="18"
   viewBox="0 40 18 18"
   id="svg3253"
   version="1.1"
   inkscape:version="0.48.2 r9819"
   sodipodi:docname="moscow-metro-18.svg">
  <metadata
     id="metadata3263">
    <rdf:RDF>
      <cc:Work
         rdf:about="">
        <dc:format>image/svg+xml</dc:format>
        <dc:type
           rdf:resource="http://purl.org/dc/dcmitype/StillImage" />
        <dc:title />
      </cc:Work>
    </rdf:RDF>
  </metadata>
  <defs
     id="defs3261" />
  <sodipodi:namedview
     pagecolor="#ffffff"
     bordercolor="#666666"
     borderopacity="1"
     objecttolerance="10"
     gridtolerance="10"
     guidetolerance="10"
     inkscape:pageopacity="0"
     inkscape:pageshadow="2"
     inkscape:window-width="1280"
     inkscape:window-height="756"
     id="namedview3259"
     showgrid="true"
     inkscape:zoom="17.291975"
     inkscape:cx="4.2494926"
     inkscape:cy="7.9352622"
     inkscape:window-x="377"
     inkscape:window-y="163"
     inkscape:window-maximized="0"
     inkscape:current-layer="svg3253"
     inkscape:snap-nodes="true"
     inkscape:snap-bbox="true">
    <inkscape:grid
       type="xygrid"
       id="grid3265"
       empspacing="2"
       visible="true"
       enabled="true"
       snapvisiblegridlinesonly="true" />
  </sodipodi:namedview>
  <g
     id="g3008">
    <path
       d="m 9,41 c -5.1112105,0 -9,4.522391 -9,9.5 0,2.74869 1.375,4.6875 1.375,4.6875 A 2.0076702,2.0076702 0 0 0 3,56 l 12,0 a 2.0076702,2.0076702 0 0 0 1.6875,-0.90625 C 16.6875,55.09375 18,53.1617 18,50.5 18.000077,45.522365 14.111202,41 9,41 z"
       id="path2990"
       style="fill:#ffffff"
       inkscape:original="M 9 43 C 5.1339817 43 2 46.597018 2 50.5 C 2 52.61631 3 54 3 54 L 15 54 C 15 54 16 52.488762 16 50.5 C 16.00006 46.59705 12.865989 43 9 43 z "
       inkscape:radius="2.0074694"
       sodipodi:type="inkscape:offset" />
    <path
       sodipodi:nodetypes="sscccs"
       style="fill:#104e81;fill-opacity:1"
       inkscape:connector-curvature="0"
       id="path3255"
       d="M 9,43 C 5.1339817,43 1.9999999,46.599811 1.9999999,50.502793 1.9999999,52.619103 3,54 3,54 l 12,0 c 0,0 1,-1.508477 1,-3.497239 C 16.00006,46.599811 12.865989,43 9,43 z" />
    <path
       d="m 9,44 c -3.2517787,0 -6,3.127119 -6,6.5 0,1.331684 0.3619229,2.090242 0.59375,2.5 l 10.8125,0 C 14.646251,52.540379 15,51.712617 15,50.5 15.000052,47.12718 12.251739,44 9,44 z"
       id="path2995"
       style="fill:#ffffff"
       inkscape:original="M 9 43 C 5.1339817 43 2 46.597018 2 50.5 C 2 52.61631 3 54 3 54 L 15 54 C 15 54 16 52.488762 16 50.5 C 16.00006 46.59705 12.865989 43 9 43 z "
       inkscape:radius="-0.99026257"
       sodipodi:type="inkscape:offset" />
    <path
       sodipodi:nodetypes="ccccccccccccccccccc"
       style="fill:#eb3c00;fill-opacity:1"
       inkscape:connector-curvature="0"
       id="path3257"
       d="M 13,51 11,45 9,48.5 7,45 l -2,6 -1,0 0,1 4,0 0,-1 -1.5,0 1,-2.5 1.5,3 1.5,-3 1,2.5 -1.5,0 0,1 4,0 0,-1 z" />
    <path
       id="rect2992"
       d="m 0,40 18,0 0,18 -18,0 z"
       style="fill:#ffffff;fill-opacity:0;stroke:none"
       inkscape:connector-curvature="0" />
  </g>
</svg>
