<?xml version="1.0" encoding="UTF-8" standalone="no"?>
<svg
   xmlns:dc="http://purl.org/dc/elements/1.1/"
   xmlns:cc="http://creativecommons.org/ns#"
   xmlns:rdf="http://www.w3.org/1999/02/22-rdf-syntax-ns#"
   xmlns:svg="http://www.w3.org/2000/svg"
   xmlns="http://www.w3.org/2000/svg"
   xmlns:sodipodi="http://sodipodi.sourceforge.net/DTD/sodipodi-0.dtd"
   xmlns:inkscape="http://www.inkscape.org/namespaces/inkscape"
   width="12"
   height="12"
   viewBox="0 40 12 12"
   id="svg3253"
   version="1.1"
   inkscape:version="0.48.2 r9819"
   sodipodi:docname="moscow-metro-12.svg">
  <metadata
     id="metadata3263">
    <rdf:RDF>
      <cc:Work
         rdf:about="">
        <dc:format>image/svg+xml</dc:format>
        <dc:type
           rdf:resource="http://purl.org/dc/dcmitype/StillImage" />
        <dc:title />
      </cc:Work>
    </rdf:RDF>
  </metadata>
  <defs
     id="defs3261" />
  <sodipodi:namedview
     pagecolor="#f5f5ff"
     bordercolor="#666666"
     borderopacity="1"
     objecttolerance="10"
     gridtolerance="10"
     guidetolerance="10"
     inkscape:pageopacity="0"
     inkscape:pageshadow="2"
     inkscape:window-width="1383"
     inkscape:window-height="938"
     id="namedview3259"
     showgrid="false"
     inkscape:zoom="8"
     inkscape:cx="-8.6587915"
     inkscape:cy="8.2277901"
     inkscape:window-x="128"
     inkscape:window-y="52"
     inkscape:window-maximized="0"
     inkscape:current-layer="svg3253">
    <inkscape:grid
       type="xygrid"
       id="grid3265"
       empspacing="2"
       visible="true"
       enabled="true"
       snapvisiblegridlinesonly="true" />
  </sodipodi:namedview>
  <path
     sodipodi:type="inkscape:offset"
     inkscape:radius="0.98672837"
     inkscape:original="M 6 42 C 3.238559 42 1 44.712156 1 47.5 C 1 49.01165 1.71875 50 1.71875 50 L 10.28125 50 C 10.28125 50 11 48.920544 11 47.5 C 11.000043 44.712179 8.761421 42 6 42 z "
     style="fill:#ffffff"
     id="path3008"
     d="m 6,41 c -3.4075194,0 -6,3.183946 -6,6.5 0,1.824426 0.90625,3.09375 0.90625,3.09375 A 0.98682704,0.98682704 0 0 0 1.71875,51 l 8.5625,0 a 0.98682704,0.98682704 0 0 0 0.8125,-0.46875 C 11.09375,50.53125 12,49.253379 12,47.5 12.000051,44.18394 9.4075096,41 6,41 z" />
  <path
     sodipodi:nodetypes="sscccs"
     style="fill:#104e81;fill-opacity:1"
     inkscape:connector-curvature="0"
     id="path3025"
     d="M 6,42 C 3.238559,42 1,44.714151 1,47.501995 1,49.013645 1.714285,50 1.714285,50 l 8.57143,0 C 10.285715,50 11,48.922516 11,47.501972 11.000043,44.714151 8.761421,42 6,42 z" />
  <path
     d="m 6,43 c -2.0998831,0 -4,2.253021 -4,4.5 0,0.935575 0.2670829,1.26769 0.40625,1.5 L 9.5625,49 C 9.7111322,48.724718 10,48.336224 10,47.5 10.000035,45.253074 8.0998527,43 6,43 z"
     id="path3027"
     style="fill:#ffffff"
     inkscape:original="M 6 42 C 3.238559 42 1 44.712156 1 47.5 C 1 49.01165 1.71875 50 1.71875 50 L 10.28125 50 C 10.28125 50 11 48.920544 11 47.5 C 11.000043 44.712179 8.761421 42 6 42 z "
     inkscape:radius="-1.0103694"
     sodipodi:type="inkscape:offset" />
  <path
     sodipodi:nodetypes="cccccccccccccccc"
     style="fill:#eb3c00;fill-opacity:1"
     inkscape:connector-curvature="0"
     id="path3029"
     d="M 9.5,48.5 7.5,44 7,44 6,46.071428 5,44 l -0.5,0 -2,4.5 c 0.6851572,0 1.0683322,0 1.5,0 l 0.5,-2 0.5,0 0.5,2 1,0 0.5,-2 0.5,0 0.5,2 c 0.5380057,0 0.8759528,0 1.5,0 z" />
  <path
     inkscape:connector-curvature="0"
     style="fill:#ffffff;fill-opacity:0;stroke:none"
     d="m 0,40 12,0 0,12 -12,0 z"
     id="rect3010" />
</svg>
