<?xml version="1.0" encoding="UTF-8" standalone="no"?>
<!-- Generator: Adobe Illustrator 13.0.0, SVG Export Plug-In . SVG Version: 6.00 Build 14948)  -->

<svg
   xmlns:dc="http://purl.org/dc/elements/1.1/"
   xmlns:cc="http://creativecommons.org/ns#"
   xmlns:rdf="http://www.w3.org/1999/02/22-rdf-syntax-ns#"
   xmlns:svg="http://www.w3.org/2000/svg"
   xmlns="http://www.w3.org/2000/svg"
   xmlns:sodipodi="http://sodipodi.sourceforge.net/DTD/sodipodi-0.dtd"
   xmlns:inkscape="http://www.inkscape.org/namespaces/inkscape"
   version="1.1"
   id="Layer_1"
   x="0px"
   y="0px"
   width="18"
   height="18"
   viewBox="0 0 18 18"
   enable-background="new 0 0 400 400"
   xml:space="preserve"
   sodipodi:version="0.32"
   inkscape:version="0.48.2 r9819"
   sodipodi:docname="rer-18.svg"
   inkscape:output_extension="org.inkscape.output.svg.inkscape"><metadata
   id="metadata8"><rdf:RDF><cc:Work
       rdf:about=""><dc:format>image/svg+xml</dc:format><dc:type
         rdf:resource="http://purl.org/dc/dcmitype/StillImage" /><dc:title /></cc:Work></rdf:RDF></metadata><defs
   id="defs6"><inkscape:perspective
     sodipodi:type="inkscape:persp3d"
     inkscape:vp_x="0 : 200 : 1"
     inkscape:vp_y="0 : 1000 : 0"
     inkscape:vp_z="400 : 200 : 1"
     inkscape:persp3d-origin="200 : 133.33333 : 1"
     id="perspective10" /></defs><sodipodi:namedview
   inkscape:window-height="877"
   inkscape:window-width="1774"
   inkscape:pageshadow="2"
   inkscape:pageopacity="0.0"
   guidetolerance="10.0"
   gridtolerance="10.0"
   objecttolerance="10.0"
   borderopacity="1.0"
   bordercolor="#666666"
   pagecolor="#ffffff"
   id="base"
   showgrid="true"
   inkscape:zoom="22.627416"
   inkscape:cx="5.0718378"
   inkscape:cy="6.2099966"
   inkscape:window-x="-9"
   inkscape:window-y="100"
   inkscape:current-layer="Layer_1"
   inkscape:window-maximized="0"
   inkscape:snap-nodes="true"
   inkscape:snap-bbox="true"><inkscape:grid
     type="xygrid"
     id="grid3201"
     empspacing="2"
     visible="true"
     enabled="true"
     snapvisiblegridlinesonly="true" /></sodipodi:namedview>

<g
   id="g2996"><path
     style="fill:#ffffff;fill-opacity:1"
     d="M 18,9.0446398 C 18,4.0497287 13.814838,0 9.0233597,0 4.0505238,0 0,4.0497287 0,9.0446398 0,13.971391 4.0505238,18 9.0233597,18 13.995473,18 18,14.016392 18,9.0446398"
     id="path3067"
     inkscape:connector-curvature="0" /><path
     inkscape:connector-curvature="0"
     id="path3324"
     d="M 16,9 C 16,5.1150693 12.744874,1.9652804 9.0181684,1.9652804 5.1504072,1.9652804 2,5.1150693 2,9 2,12.831918 5.1504072,15.96528 9.0181684,15.96528 12.885367,15.96528 16,12.866918 16,9"
     style="fill:#104e81;fill-opacity:1" /><path
     inkscape:connector-curvature="0"
     id="path3314"
     d="M 15,9.0434088 C 15,12.308402 12.30409,15 9.018056,15 5.71332,15 3,12.325541 3,9.0434088 3,5.7270648 5.71332,3 9.018056,3 12.30409,3 15,5.7439252 15,9.0434088 z"
     style="fill:#ffffff;fill-opacity:1" /><path
     id="rect2992"
     d="m 8,6 0,6.03125 2.5,0 L 10.5,11 9,11 9,9.5 10.5,9.5 10.5,8 9,8 9,7 10.5,7 10.5,6 8,6 z"
     style="fill:#104e81;fill-opacity:1;stroke:none"
     inkscape:connector-curvature="0" /><path
     id="rect3074"
     d="m 11,6 0,6 1,0 0,-2 1,0.53125 L 13,12 14,11 14,10 13,9 14,9 14,7 13,6 12,6 11,6 z m 1,1 1,0 0,1 -1,0.5 0,-1.5 z"
     style="fill:#104e81;fill-opacity:1;stroke:none"
     inkscape:connector-curvature="0" /><path
     sodipodi:nodetypes="cccccccccccccccccccc"
     inkscape:connector-curvature="0"
     id="rect3086"
     d="m 4.9375,6 0,0.0625 L 4,7 l 0,4 1,1 0,-2 1,1.5 0,0.5 1.5,0 0,-0.5 L 6,9 7.5,9 7.5,8 7.5,6 C 7.5,6 5.7916667,6 4.9375,6 z M 5.5,7 6.5,7 6,8.5 5,8.5 z"
     style="fill:#104e81;fill-opacity:1;stroke:none" /></g></svg>