<?xml version="1.0" encoding="UTF-8" standalone="no"?>
<!-- Generator: Adobe Illustrator 15.0.1, SVG Export Plug-In . SVG Version: 6.00 Build 0)  -->

<svg
   xmlns:dc="http://purl.org/dc/elements/1.1/"
   xmlns:cc="http://creativecommons.org/ns#"
   xmlns:rdf="http://www.w3.org/1999/02/22-rdf-syntax-ns#"
   xmlns:svg="http://www.w3.org/2000/svg"
   xmlns="http://www.w3.org/2000/svg"
   xmlns:sodipodi="http://sodipodi.sourceforge.net/DTD/sodipodi-0.dtd"
   xmlns:inkscape="http://www.inkscape.org/namespaces/inkscape"
   version="1.1"
   id="Ebene_1"
   x="0px"
   y="0px"
   width="12"
   height="12"
   viewBox="0 0 12 12"
   enable-background="new 0 0 350 353"
   xml:space="preserve"
   inkscape:version="0.48.2 r9819"
   sodipodi:docname="s-bahn-12.svg"><metadata
   id="metadata13"><rdf:RDF><cc:Work
       rdf:about=""><dc:format>image/svg+xml</dc:format><dc:type
         rdf:resource="http://purl.org/dc/dcmitype/StillImage" /><dc:title /></cc:Work></rdf:RDF></metadata><defs
   id="defs11" /><sodipodi:namedview
   pagecolor="#ffffff"
   bordercolor="#666666"
   borderopacity="1"
   objecttolerance="10"
   gridtolerance="10"
   guidetolerance="10"
   inkscape:pageopacity="0"
   inkscape:pageshadow="2"
   inkscape:window-width="1108"
   inkscape:window-height="793"
   id="namedview9"
   showgrid="false"
   inkscape:zoom="22.627417"
   inkscape:cx="-1.3857119"
   inkscape:cy="4.07605"
   inkscape:window-x="433"
   inkscape:window-y="239"
   inkscape:window-maximized="0"
   inkscape:current-layer="Ebene_1"
   inkscape:snap-nodes="false"><inkscape:grid
     type="xygrid"
     id="grid2985" /></sodipodi:namedview>

<path
   d="M 5.9999637,12 C 2.6907414,12 0,9.309259 0,6.0000002 0,2.6907776 2.6907414,0 5.9999637,0 9.3092223,0 12,2.6907776 12,6.0000002 12.000073,9.309259 9.3092223,12 5.9999637,12 z"
   id="path2997"
   inkscape:connector-curvature="0"
   style="fill:#ffffff" /><path
   style="fill:#006f4d;fill-opacity:1"
   inkscape:connector-curvature="0"
   id="path5-0-4"
   d="M 5.9999702,11 C 3.2422847,11 1,8.7577156 1,5.9999999 1,3.2423143 3.2422847,0.99999949 5.9999702,0.99999949 c 2.7577157,0 5.0000308,2.24231481 5.0000308,5.00000041 C 11.000061,8.7577156 8.7576859,11 5.9999702,11 z" /><path
   style="fill:#ffffff"
   inkscape:connector-curvature="0"
   id="path7-9-1"
   d="M 4.5059198,3.9604735 C 4.5000449,3.3842413 5.0063159,3.0196296 6.0000001,3 6.9930912,2.9803821 7.8037974,3.7559367 8.5,4.5000001 L 8.5,3 C 7.6952983,2.3814411 7.1301991,2 6.0000001,2 4.6437613,2 3,2.9539177 3,4.5000001 c 0,2.9475891 4.5089022,2.0294287 4.5089022,3.5393857 0,0.4520796 -0.7674916,0.9606143 -1.5089021,0.9606143 C 4.7884267,9.0000001 3.6600364,8.4493671 3,7.5 L 3,9.0000001 C 3.6962027,9.6238699 4.8969258,9.9999999 6.0000001,9.9999999 7.9801087,9.9999999 9,8.7115733 9,7.5 9.0000301,4.4982216 4.5217212,5.5103238 4.5059198,3.9604735 z"
   sodipodi:nodetypes="ssccssssccscs" /></svg>