<?xml version="1.0" encoding="UTF-8" standalone="no"?>
<!-- Created with Inkscape (http://www.inkscape.org/) -->

<svg
   xmlns:dc="http://purl.org/dc/elements/1.1/"
   xmlns:cc="http://creativecommons.org/ns#"
   xmlns:rdf="http://www.w3.org/1999/02/22-rdf-syntax-ns#"
   xmlns:svg="http://www.w3.org/2000/svg"
   xmlns="http://www.w3.org/2000/svg"
   xmlns:sodipodi="http://sodipodi.sourceforge.net/DTD/sodipodi-0.dtd"
   xmlns:inkscape="http://www.inkscape.org/namespaces/inkscape"
   width="12"
   height="12"
   id="svg4764"
   version="1.1"
   inkscape:version="0.48.4 r9939"
   sodipodi:docname="light-12.svg">
  <defs
     id="defs4766" />
  <sodipodi:namedview
     id="base"
     pagecolor="#ffffff"
     bordercolor="#666666"
     borderopacity="1.0"
     inkscape:pageopacity="0.0"
     inkscape:pageshadow="2"
     inkscape:zoom="1"
     inkscape:cx="4.7310842"
     inkscape:cy="7.287473"
     inkscape:document-units="px"
     inkscape:current-layer="layer1"
     showgrid="false"
     showguides="false"
     inkscape:guide-bbox="true"
     inkscape:window-width="959"
     inkscape:window-height="1025"
     inkscape:window-x="960"
     inkscape:window-y="27"
     inkscape:window-maximized="0"
     inkscape:snap-bbox="true"
     inkscape:object-paths="false"
     inkscape:object-nodes="true"
     inkscape:bbox-nodes="true">
    <inkscape:grid
       type="xygrid"
       id="grid4772"
       empspacing="2"
       visible="true"
       enabled="true"
       snapvisiblegridlinesonly="true"
       color="#ff00ff"
       opacity="0.1254902"
       empcolor="#ff00ff"
       empopacity="0.25098039" />
    <sodipodi:guide
       orientation="0,1"
       position="2,12"
       id="guide4789" />
    <sodipodi:guide
       orientation="1,0"
       position="12,10"
       id="guide4791" />
    <sodipodi:guide
       orientation="0,1"
       position="10,0"
       id="guide4793" />
    <sodipodi:guide
       orientation="1,0"
       position="0,9"
       id="guide4795" />
    <sodipodi:guide
       orientation="0,1"
       position="5,11"
       id="guide4797" />
    <sodipodi:guide
       orientation="1,0"
       position="11,7"
       id="guide4799" />
    <sodipodi:guide
       orientation="0,1"
       position="9,2"
       id="guide4801" />
    <sodipodi:guide
       orientation="1,0"
       position="2,5"
       id="guide4803" />
  </sodipodi:namedview>
  <metadata
     id="metadata4769">
    <rdf:RDF>
      <cc:Work
         rdf:about="">
        <dc:format>image/svg+xml</dc:format>
        <dc:type
           rdf:resource="http://purl.org/dc/dcmitype/StillImage" />
        <dc:title />
      </cc:Work>
    </rdf:RDF>
  </metadata>
  <g
     inkscape:label="Layer 1"
     inkscape:groupmode="layer"
     id="layer1"
     transform="translate(0,-1040.3622)">
    <path
       style="fill:#666677;fill-opacity:1;stroke:#ffffff;stroke-width:2;stroke-linecap:round;stroke-linejoin:round;stroke-miterlimit:4;stroke-dasharray:none"
       d="M 6,1 C 4,1 3,3 3,4.5 L 3,7.75 3.25,8 9.75,8 10,7.75 10,4.5 C 10,3 9,1 7,1 z M 5.75,2 6,2.25 6,4.75 5.75,5 4.25,5 4,4.75 C 4,3.75 4.25,2 5.75,2 z m 1.5,0 C 8.75,2 9,3.75 9,4.75 L 8.75,5 7.25,5 7,4.75 7,2.25 z M 4.5,8.5 3,9.25 3,10 4.75,10 5.5,9.25 5.5,8.5 z m 3,0 0,0.75 L 8.25,10 10,10 10,9.25 8.5,8.5 z"
       transform="translate(0,1040.3622)"
       id="path4784"
       inkscape:connector-curvature="0"
       sodipodi:nodetypes="ssccccssscccccccccccccccccccccccccccc" />
    <path
       style="fill:#666677;fill-opacity:1;stroke:none"
       d="M 6,1 C 4,1 3,3 3,4.5 L 3,7.75 3.25,8 9.75,8 10,7.75 10,4.5 C 10,3 9,1 7,1 z M 5.75,2 6,2.25 6,4.75 5.75,5 4.25,5 4,4.75 C 4,3.75 4.25,2 5.75,2 z M 7,2.25 7.25,2 C 8.75,2 9,3.75 9,4.75 L 8.75,5 7.25,5 7,4.75 z"
       transform="translate(0,1040.3622)"
       id="path3248"
       inkscape:connector-curvature="0"
       sodipodi:nodetypes="ccccccccccccccccccccccc" />
    <path
       style="fill:#666677;fill-opacity:1;stroke:none"
       d="m 4.5,1048.8622 -1.5,0.75 0,0.75 1.75,0 0.75,-0.75 0,-0.75 z"
       id="path3266"
       inkscape:connector-curvature="0"
       sodipodi:nodetypes="ccccccc" />
    <path
       sodipodi:nodetypes="ccccccc"
       inkscape:connector-curvature="0"
       id="path3268"
       d="m 8.5,1048.8622 -1,0 0,0.75 0.75,0.75 1.75,0 0,-0.75 z"
       style="fill:#666677;fill-opacity:1;stroke:none" />
    <rect
       style="color:#000000;fill:#a3a3a3;fill-opacity:0;fill-rule:nonzero;stroke:none;stroke-width:1;marker:none;visibility:visible;display:inline;overflow:visible;enable-background:accumulate"
       id="rect3122"
       width="12"
       height="12"
       x="0"
       y="0"
       transform="translate(0,1040.3622)" />
    <path
       sodipodi:type="arc"
       style="color:#000000;fill:#ffffff;fill-opacity:1;fill-rule:nonzero;stroke:none;stroke-width:1;marker:none;visibility:visible;display:inline;overflow:visible;enable-background:accumulate"
       id="path3096"
       sodipodi:cx="4.5"
       sodipodi:cy="6.5"
       sodipodi:rx="0.5"
       sodipodi:ry="0.5"
       d="M 5,6.5 C 5,6.7761424 4.7761424,7 4.5,7 4.2238576,7 4,6.7761424 4,6.5 4,6.2238576 4.2238576,6 4.5,6 4.7761424,6 5,6.2238576 5,6.5 z"
       transform="matrix(1.25,0,0,1.25,-1,1038.6122)" />
    <path
       transform="matrix(1.25,0,0,1.25,2.75,1038.6122)"
       d="M 5,6.5 C 5,6.7761424 4.7761424,7 4.5,7 4.2238576,7 4,6.7761424 4,6.5 4,6.2238576 4.2238576,6 4.5,6 4.7761424,6 5,6.2238576 5,6.5 z"
       sodipodi:ry="0.5"
       sodipodi:rx="0.5"
       sodipodi:cy="6.5"
       sodipodi:cx="4.5"
       id="path3098"
       style="color:#000000;fill:#ffffff;fill-opacity:1;fill-rule:nonzero;stroke:none;stroke-width:1;marker:none;visibility:visible;display:inline;overflow:visible;enable-background:accumulate"
       sodipodi:type="arc" />
  </g>
</svg>
