<?xml version="1.0" encoding="UTF-8" standalone="no"?>
<!-- Created with Inkscape (http://www.inkscape.org/) -->

<svg
   xmlns:dc="http://purl.org/dc/elements/1.1/"
   xmlns:cc="http://creativecommons.org/ns#"
   xmlns:rdf="http://www.w3.org/1999/02/22-rdf-syntax-ns#"
   xmlns:svg="http://www.w3.org/2000/svg"
   xmlns="http://www.w3.org/2000/svg"
   xmlns:sodipodi="http://sodipodi.sourceforge.net/DTD/sodipodi-0.dtd"
   xmlns:inkscape="http://www.inkscape.org/namespaces/inkscape"
   width="12"
   height="12"
   id="svg2484"
   sodipodi:version="0.32"
   inkscape:version="0.48.2 r9819"
   version="1.0"
   sodipodi:docname="transilien-12.svg"
   inkscape:output_extension="org.inkscape.output.svg.inkscape">
  <defs
     id="defs2486" />
  <sodipodi:namedview
     id="base"
     pagecolor="#ffffff"
     bordercolor="#666666"
     borderopacity="1.0"
     inkscape:pageopacity="0.0"
     inkscape:pageshadow="2"
     inkscape:zoom="32"
     inkscape:cx="3.1151838"
     inkscape:cy="4.153791"
     inkscape:document-units="px"
     inkscape:current-layer="layer1"
     showgrid="false"
     inkscape:window-width="1218"
     inkscape:window-height="995"
     inkscape:window-x="374"
     inkscape:window-y="49"
     inkscape:window-maximized="0"
     width="12px"
     showguides="true"
     inkscape:guide-bbox="true">
    <inkscape:grid
       type="xygrid"
       id="grid2991"
       empspacing="2"
       visible="true"
       enabled="true"
       snapvisiblegridlinesonly="true" />
  </sodipodi:namedview>
  <metadata
     id="metadata2489">
    <rdf:RDF>
      <cc:Work
         rdf:about="">
        <dc:format>image/svg+xml</dc:format>
        <dc:type
           rdf:resource="http://purl.org/dc/dcmitype/StillImage" />
        <dc:title />
      </cc:Work>
    </rdf:RDF>
  </metadata>
  <g
     inkscape:label="Calque 1"
     inkscape:groupmode="layer"
     id="layer1"
     transform="translate(1125.7177,-1006.5985)">
    <g
       id="g3812">
      <path
         inkscape:connector-curvature="0"
         style="fill:#ffffff;fill-opacity:1;stroke:none"
         d="m -1123.3177,1006.5984 7.2,0 c 1.3296,0 2.4,1.0704 2.4,2.4 l 0,7.2 c 0,1.3296 -1.0704,2.4 -2.4,2.4 l -7.2,0 c -1.3296,0 -2.4,-1.0704 -2.4,-2.4 l 0,-7.2 c 0,-1.3296 1.0704,-2.4 2.4,-2.4 z"
         id="path3901" />
      <path
         id="rect4162"
         d="m -1122.7177,1007.5984 6,0 c 1.108,0 2,0.892 2,2 l 0,6 c 0,1.108 -0.892,2 -2,2 l -6,0 c -1.108,0 -2,-0.892 -2,-2 l 0,-6 c 0,-1.108 0.892,-2 2,-2 z"
         style="fill:#0079ac;fill-opacity:1;stroke:none"
         inkscape:connector-curvature="0" />
      <path
         transform="translate(0.0011,0.0047)"
         d="m -1122.7188,1008.5938 c -0.572,0 -1,0.4279 -1,1 l 0,6 c 0,0.5717 0.4283,1 1,1 l 6,0 c 0.5721,0 1,-0.4281 1,-1 l 0,-6 c 0,-0.5721 -0.4279,-1 -1,-1 l -6,0 z"
         id="path4169"
         style="fill:#ffffff;fill-opacity:1;stroke:none"
         inkscape:original="M -1122.7188 1007.5938 C -1123.8268 1007.5938 -1124.7188 1008.4858 -1124.7188 1009.5938 L -1124.7188 1015.5938 C -1124.7188 1016.7017 -1123.8267 1017.5938 -1122.7188 1017.5938 L -1116.7188 1017.5938 C -1115.6107 1017.5938 -1114.7188 1016.7017 -1114.7188 1015.5938 L -1114.7188 1009.5938 C -1114.7188 1008.4858 -1115.6108 1007.5938 -1116.7188 1007.5938 L -1122.7188 1007.5938 z "
         inkscape:radius="-0.99868673"
         sodipodi:type="inkscape:offset" />
      <path
         id="rect3046"
         transform="translate(-1125.7177,1006.5985)"
         d="M 4.75 3 C 4.3345 3 4 3.3345 4 3.75 L 4 7.25 C 4 7.6655 4.3345 8 4.75 8 L 5 8 L 3.5 9.5 L 4.5 9.5 L 5.5 8.5 L 6.5 8.5 L 7.5 9.5 L 8.5 9.5 L 7 8 L 7.25 8 C 7.6655 8 8 7.6655 8 7.25 L 8 3.75 C 8 3.3345 7.6655 3 7.25 3 L 4.75 3 z M 4.75 4 L 7.25 4 C 7.3885 4 7.5 4.1115 7.5 4.25 L 7.5 4.75 C 7.5 4.8885 7.3885 5 7.25 5 L 4.75 5 C 4.6115 5 4.5 4.8885 4.5 4.75 L 4.5 4.25 C 4.5 4.1115 4.6115 4 4.75 4 z M 4.5 6 L 5 6 L 5 6.5 L 4.5 6.5 L 4.5 6 z M 7 6 L 7.5 6 L 7.5 6.5 L 7 6.5 L 7 6 z "
         style="fill:#0079ac;fill-opacity:1;stroke:none;display:inline" />
    </g>
  </g>
</svg>
