<?xml version="1.0" encoding="UTF-8" standalone="no"?>
<!-- Created with Inkscape (http://www.inkscape.org/) -->

<svg
   xmlns:dc="http://purl.org/dc/elements/1.1/"
   xmlns:cc="http://creativecommons.org/ns#"
   xmlns:rdf="http://www.w3.org/1999/02/22-rdf-syntax-ns#"
   xmlns:svg="http://www.w3.org/2000/svg"
   xmlns="http://www.w3.org/2000/svg"
   xmlns:sodipodi="http://sodipodi.sourceforge.net/DTD/sodipodi-0.dtd"
   xmlns:inkscape="http://www.inkscape.org/namespaces/inkscape"
   width="18"
   height="18"
   id="svg2484"
   sodipodi:version="0.32"
   inkscape:version="0.48.2 r9819"
   version="1.0"
   sodipodi:docname="transilien-18.svg"
   inkscape:output_extension="org.inkscape.output.svg.inkscape">
  <defs
     id="defs2486" />
  <sodipodi:namedview
     id="base"
     pagecolor="#ffffff"
     bordercolor="#666666"
     borderopacity="1.0"
     inkscape:pageopacity="0.0"
     inkscape:pageshadow="2"
     inkscape:zoom="22.627417"
     inkscape:cx="-3.7876894"
     inkscape:cy="9.4606642"
     inkscape:document-units="px"
     inkscape:current-layer="layer1"
     showgrid="true"
     inkscape:window-width="1540"
     inkscape:window-height="956"
     inkscape:window-x="18"
     inkscape:window-y="0"
     inkscape:window-maximized="0"
     inkscape:snap-bbox="true"
     inkscape:snap-nodes="true">
    <inkscape:grid
       type="xygrid"
       id="grid2991"
       empspacing="2"
       visible="true"
       enabled="true"
       snapvisiblegridlinesonly="true" />
  </sodipodi:namedview>
  <metadata
     id="metadata2489">
    <rdf:RDF>
      <cc:Work
         rdf:about="">
        <dc:format>image/svg+xml</dc:format>
        <dc:type
           rdf:resource="http://purl.org/dc/dcmitype/StillImage" />
        <dc:title />
      </cc:Work>
    </rdf:RDF>
  </metadata>
  <g
     inkscape:label="Calque 1"
     inkscape:groupmode="layer"
     id="layer1"
     transform="translate(1125.7177,-1000.5985)"
     style="display:inline">
    <g
       id="g3018">
      <g
         transform="matrix(0.0581986,0,0,0.0581986,-1116.1461,991.08678)"
         id="g3038"
         inkscape:label="Calque 1"
         style="fill:#ffffff;stroke:none">
        <g
           id="g3040"
           style="fill:#ffffff;stroke:none">
          <g
             id="g3042"
             transform="translate(346.23962,22.336208)"
             style="fill:#ffffff;stroke:none">
            <g
               style="fill:#ffffff;stroke:none"
               inkscape:label="Calque 1"
               id="g3044"
               transform="translate(-597.84164,-361.66719)">
              <g
                 style="fill:#ffffff;stroke:none"
                 id="g3046">
                <g
                   style="fill:#ffffff;stroke:none"
                   transform="matrix(1.0136364,0,0,1.0136364,-6.3061891,-6.3640296)"
                   id="g3048">
                  <rect
                     style="fill:#ffffff;fill-opacity:1;fill-rule:nonzero;stroke:none"
                     id="rect3050"
                     width="283.28412"
                     height="283.28415"
                     x="103.11621"
                     y="513.19971"
                     ry="41.278507" />
                  <path
                     sodipodi:nodetypes="sssssssss"
                     style="font-size:medium;font-style:normal;font-variant:normal;font-weight:normal;font-stretch:normal;text-indent:0;text-align:start;text-decoration:none;line-height:normal;letter-spacing:normal;word-spacing:normal;text-transform:none;direction:ltr;block-progression:tb;writing-mode:lr-tb;text-anchor:start;baseline-shift:baseline;color:#000000;fill:#ffffff;fill-opacity:1;fill-rule:nonzero;stroke:none;stroke-width:21.84507942;marker:none;visibility:visible;display:inline;overflow:visible;enable-background:accumulate;font-family:Sans;-inkscape-font-specification:Sans"
                     d="m 144.40625,502.28125 c -28.73045,0 -52.21875,23.45705 -52.21875,52.1875 l 0,200.75 c 0,28.73045 23.4883,52.1875 52.21875,52.1875 l 200.71875,0 c 28.73046,0 52.1875,-23.45705 52.1875,-52.1875 l 0,-200.75 c 0,-28.73045 -23.45705,-52.1875 -52.1875,-52.1875 z"
                     id="path3052"
                     inkscape:connector-curvature="0" />
                </g>
              </g>
            </g>
          </g>
        </g>
      </g>
      <g
         style="stroke:#0062ac;stroke-opacity:1"
         inkscape:label="Calque 1"
         id="g2757"
         transform="matrix(0.04516129,0,0,0.04516084,-1116.2746,995.23397)">
        <g
           style="stroke:#0062ac;stroke-opacity:1"
           id="g2656">
          <g
             style="fill:#ffffff;stroke:#0062ac;stroke-opacity:1"
             transform="translate(346.23962,22.336208)"
             id="g2840">
            <g
               transform="translate(-597.84164,-361.66719)"
               id="g2639"
               inkscape:label="Calque 1"
               style="fill:#ffffff;stroke:#0062ac;stroke-opacity:1">
              <g
                 id="g2628"
                 style="fill:#ffffff;stroke:#0062ac;stroke-opacity:1">
                <g
                   id="g6673"
                   transform="matrix(1.0136364,0,0,1.0136364,-6.3061891,-6.3640296)"
                   style="fill:#ffffff;stroke:#0062ac;stroke-opacity:1">
                  <rect
                     ry="41.278507"
                     y="513.19971"
                     x="103.11621"
                     height="283.28415"
                     width="283.28412"
                     id="rect5674"
                     style="fill:#ffffff;fill-opacity:1;fill-rule:nonzero;stroke:#0062ac;stroke-width:22.54545593;stroke-linejoin:miter;stroke-miterlimit:4;stroke-opacity:1;stroke-dasharray:none;stroke-dashoffset:0" />
                  <path
                     inkscape:connector-curvature="0"
                     id="rect2993"
                     d="m 144.40625,502.28125 c -28.73045,0 -52.21875,23.45705 -52.21875,52.1875 l 0,200.75 c 0,28.73045 23.4883,52.1875 52.21875,52.1875 l 200.71875,0 c 28.73046,0 52.1875,-23.45705 52.1875,-52.1875 l 0,-200.75 c 0,-28.73045 -23.45705,-52.1875 -52.1875,-52.1875 l -200.71875,0 z m 0,21.84375 200.71875,0 c 17.00615,0 30.34375,13.33762 30.34375,30.34375 l 0,200.75 c 0,17.00613 -13.33761,30.34375 -30.34375,30.34375 l -200.71875,0 c -17.00613,0 -30.375,-13.33762 -30.375,-30.34375 l 0,-200.75 c 0,-17.00613 13.36887,-30.34375 30.375,-30.34375 z"
                     style="font-size:medium;font-style:normal;font-variant:normal;font-weight:normal;font-stretch:normal;text-indent:0;text-align:start;text-decoration:none;line-height:normal;letter-spacing:normal;word-spacing:normal;text-transform:none;direction:ltr;block-progression:tb;writing-mode:lr-tb;text-anchor:start;baseline-shift:baseline;color:#000000;fill:#0079ac;fill-opacity:1;fill-rule:nonzero;stroke:none;stroke-width:21.84507942;marker:none;visibility:visible;display:inline;overflow:visible;enable-background:accumulate;font-family:Sans;-inkscape-font-specification:Sans" />
                </g>
              </g>
            </g>
          </g>
        </g>
      </g>
      <path
         id="rect3829"
         d="m -1118.7177,1004.5985 c -0.554,0 -1,0.4205 -1,0.9375 l 0,5.125 c 0,0.517 0.446,0.9375 1,0.9375 l -1.5,3 1.5,0 1,-2 2,0 1,2 1.5,0 -1.5,-3 c 0.554,0 1,-0.4205 1,-0.9375 l 0,-5.125 c 0,-0.517 -0.446,-0.9375 -1,-0.9375 l -4,0 z m 0.5,1 3,0 c 0.277,0 0.5,0.223 0.5,0.5 l 0,1 c 0,0.277 -0.223,0.5 -0.5,0.5 l -3,0 c -0.277,0 -0.5,-0.223 -0.5,-0.5 l 0,-1 c 0,-0.277 0.223,-0.5 0.5,-0.5 z m -0.5,3 1,0 0,1 -1,0 0,-1 z m 3,0 1,0 0,1 -1,0 0,-1 z"
         style="fill:#0079ac;fill-opacity:1;stroke:none"
         inkscape:connector-curvature="0" />
    </g>
  </g>
</svg>
