<?xml version="1.0" encoding="UTF-8" standalone="no"?>
<svg
   xmlns:dc="http://purl.org/dc/elements/1.1/"
   xmlns:cc="http://creativecommons.org/ns#"
   xmlns:rdf="http://www.w3.org/1999/02/22-rdf-syntax-ns#"
   xmlns:svg="http://www.w3.org/2000/svg"
   xmlns="http://www.w3.org/2000/svg"
   xmlns:sodipodi="http://sodipodi.sourceforge.net/DTD/sodipodi-0.dtd"
   xmlns:inkscape="http://www.inkscape.org/namespaces/inkscape"
   width="12"
   height="12"
   id="svg2"
   version="1.1"
   inkscape:version="0.48.2 r9819"
   sodipodi:docname="u-bahn-12.svg">
  <metadata
     id="metadata12">
    <rdf:RDF>
      <cc:Work
         rdf:about="">
        <dc:format>image/svg+xml</dc:format>
        <dc:type
           rdf:resource="http://purl.org/dc/dcmitype/StillImage" />
        <dc:title />
      </cc:Work>
    </rdf:RDF>
  </metadata>
  <defs
     id="defs10" />
  <sodipodi:namedview
     pagecolor="#ffffff"
     bordercolor="#666666"
     borderopacity="1"
     objecttolerance="10"
     gridtolerance="10"
     guidetolerance="10"
     inkscape:pageopacity="0"
     inkscape:pageshadow="2"
     inkscape:window-width="483"
     inkscape:window-height="454"
     id="namedview8"
     showgrid="false"
     inkscape:zoom="5.6568542"
     inkscape:cx="0.38540487"
     inkscape:cy="5.7553669"
     inkscape:window-x="618"
     inkscape:window-y="446"
     inkscape:window-maximized="0"
     inkscape:current-layer="svg2">
    <inkscape:grid
       type="xygrid"
       id="grid2997"
       empspacing="2"
       visible="true"
       enabled="true"
       snapvisiblegridlinesonly="true"
       color="#ff00ff"
       opacity="0.1254902"
       empcolor="#ff00ff"
       empopacity="0.25098039" />
  </sodipodi:namedview>
  <g
     id="g3007">
    <path
       inkscape:connector-curvature="0"
       style="fill:#ffffff"
       d="M 0,0 12,0 12,12 0,12 z"
       id="path2994" />
    <path
       id="rect3272"
       d="M 1,1 11,1 11,11 1,11 z"
       style="fill:#104e81;fill-opacity:1"
       inkscape:connector-curvature="0" />
    <path
       sodipodi:nodetypes="cccczsccszc"
       style="fill:#ffffff"
       inkscape:connector-curvature="0"
       id="path3274"
       d="M 9,7.5 C 8.99586,5.4691074 9,2 9,2 L 7.5,2 c 0,0 0,3.216125 0,5 C 7.5,8 6.71875,8.5 6,8.5 5.28125,8.5 4.5,8 4.5,7 c 0,-1.9084889 0,-5 0,-5 L 3,2 C 3,2 3,7.1852509 3,7.5 3,9 4.5,10 6,10 7.5,10 9,9 9,7.5 z" />
  </g>
</svg>
