<?xml version="1.0" encoding="UTF-8" standalone="no"?>
<svg
   xmlns:dc="http://purl.org/dc/elements/1.1/"
   xmlns:cc="http://creativecommons.org/ns#"
   xmlns:rdf="http://www.w3.org/1999/02/22-rdf-syntax-ns#"
   xmlns:svg="http://www.w3.org/2000/svg"
   xmlns="http://www.w3.org/2000/svg"
   xmlns:sodipodi="http://sodipodi.sourceforge.net/DTD/sodipodi-0.dtd"
   xmlns:inkscape="http://www.inkscape.org/namespaces/inkscape"
   width="12"
   height="12"
   id="svg3115"
   version="1.1"
   inkscape:version="0.48.2 r9819"
   sodipodi:docname="wiener-linien-12.svg">
  <metadata
     id="metadata3125">
    <rdf:RDF>
      <cc:Work
         rdf:about="">
        <dc:format>image/svg+xml</dc:format>
        <dc:type
           rdf:resource="http://purl.org/dc/dcmitype/StillImage" />
        <dc:title />
      </cc:Work>
    </rdf:RDF>
  </metadata>
  <defs
     id="defs3123" />
  <sodipodi:namedview
     pagecolor="#ffffff"
     bordercolor="#666666"
     borderopacity="1"
     objecttolerance="10"
     gridtolerance="10"
     guidetolerance="10"
     inkscape:pageopacity="0"
     inkscape:pageshadow="2"
     inkscape:window-width="837"
     inkscape:window-height="716"
     id="namedview3121"
     showgrid="false"
     inkscape:zoom="16"
     inkscape:cx="7.9572497"
     inkscape:cy="6.8493592"
     inkscape:window-x="309"
     inkscape:window-y="30"
     inkscape:window-maximized="0"
     inkscape:current-layer="svg3115">
    <inkscape:grid
       type="xygrid"
       id="grid3305"
       empspacing="2"
       visible="true"
       enabled="true"
       snapvisiblegridlinesonly="true" />
  </sodipodi:namedview>
  <g
     id="g3007">
    <circle
       d="M 499,250 C 499,387.5189 387.5189,499 250,499 112.4811,499 1,387.5189 1,250 1,112.4811 112.4811,1 250,1 387.5189,1 499,112.4811 499,250 z"
       cx="250"
       cy="250"
       r="249"
       id="circle2994"
       sodipodi:cx="250"
       sodipodi:cy="250"
       sodipodi:rx="249"
       sodipodi:ry="249"
       transform="matrix(0.02409639,0,0,0.02409639,-0.02409639,-0.02409861)"
       style="fill:#ffffff" />
    <circle
       style="fill:#0079ac;fill-opacity:1"
       transform="matrix(0.02012556,0,0,0.02012556,0.96861086,0.97987456)"
       sodipodi:ry="249"
       sodipodi:rx="249"
       sodipodi:cy="250"
       sodipodi:cx="250"
       id="circle3117-7"
       r="249"
       cy="250"
       cx="250"
       d="M 499,250 C 499,387.5189 387.5189,499 250,499 112.4811,499 1,387.5189 1,250 1,112.4811 112.4811,1 250,1 387.5189,1 499,112.4811 499,250 z" />
    <path
       sodipodi:nodetypes="ccscccccscccc"
       inkscape:connector-curvature="0"
       id="path3119-9"
       d="m 3,3.5 0,3 C 3.00216,8.1670345 4.3416481,9.4805992 6.0086834,9.4805992 7.6757186,9.4805992 8.9978328,8.1670345 9,6.5 L 9,3.5 9,3 7,3 7,6.5 C 7,7 6.5,7.5 6,7.5 5.5,7.5 5,7 5,6.5 L 5,3 3,3 z"
       style="font-size:medium;font-style:normal;font-variant:normal;font-weight:normal;font-stretch:normal;text-indent:0;text-align:start;text-decoration:none;line-height:normal;letter-spacing:normal;word-spacing:normal;text-transform:none;direction:ltr;block-progression:tb;writing-mode:lr-tb;text-anchor:start;baseline-shift:baseline;color:#000000;fill:#ffffff;fill-opacity:1;stroke:none;stroke-width:2.68007326;marker:none;visibility:visible;display:inline;overflow:visible;enable-background:accumulate;font-family:Sans;-inkscape-font-specification:Sans" />
  </g>
</svg>
