<?xml version="1.0" encoding="UTF-8" standalone="no"?>
<svg
   xmlns:dc="http://purl.org/dc/elements/1.1/"
   xmlns:cc="http://creativecommons.org/ns#"
   xmlns:rdf="http://www.w3.org/1999/02/22-rdf-syntax-ns#"
   xmlns:svg="http://www.w3.org/2000/svg"
   xmlns="http://www.w3.org/2000/svg"
   version="1.1"
   id="svg3844"
   height="31"
   width="17">
  <defs
     id="defs3846" />
  <metadata
     id="metadata3849">
    <rdf:RDF>
      <cc:Work
         rdf:about="">
        <dc:format>image/svg+xml</dc:format>
        <dc:type
           rdf:resource="http://purl.org/dc/dcmitype/StillImage" />
        <dc:title></dc:title>
      </cc:Work>
    </rdf:RDF>
  </metadata>
  <g
     transform="translate(-301,-894.36218)"
     id="layer1">
    <path
       id="path3799"
       transform="translate(301,901.36218)"
       d="m 3.5,1 -3,2.5 C 1,4 2.5,5 1.5,7 0.5,9 0,12 2,14 c 2.5,2.5 5.5,0.5 6.5,2.5 1,-2 4,0 6.5,-2.5 2,-2 1.5,-5 0.5,-7 -1,-2 0.5,-3 1,-3.5 L 13.5,1 c -2,1 -2.5,2 -5,0 -2.5,2 -3,1 -5,0 z"
       clip-path="none"
       style="color:#000000;display:inline;overflow:visible;visibility:visible;opacity:1;fill:#ffffff;fill-opacity:1;fill-rule:evenodd;stroke:#4d4d4d;stroke-width:1;stroke-linecap:round;stroke-linejoin:round;marker:none;enable-background:accumulate" />
    <rect
       y="894.36218"
       x="301"
       height="31"
       width="17"
       id="rect3803"
       style="color:#000000;display:inline;overflow:visible;visibility:visible;opacity:0;fill:#000000;fill-opacity:1;fill-rule:nonzero;stroke:none;stroke-width:1;marker:none;enable-background:accumulate" />
    <rect
       ry="0.99999738"
       rx="1"
       y="894.36218"
       x="301"
       height="7.000071"
       width="17"
       id="rect4807"
       style="color:#000000;clip-rule:nonzero;display:inline;overflow:visible;visibility:visible;opacity:1;isolation:auto;mix-blend-mode:normal;color-interpolation:sRGB;color-interpolation-filters:linearRGB;solid-color:#000000;solid-opacity:1;fill:#ffffff;fill-opacity:1;fill-rule:evenodd;stroke:none;stroke-width:1;stroke-linecap:round;stroke-linejoin:round;stroke-miterlimit:4;stroke-dasharray:none;stroke-dashoffset:0;stroke-opacity:1;marker:none;color-rendering:auto;image-rendering:auto;shape-rendering:auto;text-rendering:auto;enable-background:accumulate" />
    <g
       id="text4827"
       style="font-style:normal;font-variant:normal;font-weight:normal;font-stretch:normal;font-size:35.16156769px;line-height:125%;font-family:'DejaVu Sans';-inkscape-font-specification:'DejaVu Sans';letter-spacing:0px;word-spacing:0px;fill:#4d4d4d;fill-opacity:1;stroke:none;stroke-width:1px;stroke-linecap:butt;stroke-linejoin:miter;stroke-opacity:1"
       transform="scale(1.016077,0.98417739)">
      <path
         id="path3367"
         style="font-style:normal;font-variant:normal;font-weight:bold;font-stretch:normal;font-size:6.59279442px;font-family:'Droid Sans';-inkscape-font-specification:'Droid Sans Bold';letter-spacing:-0.2px;fill:#4d4d4d;fill-opacity:1"
         d="m 302.35579,914.65356 -0.32192,-1.12026 -1.62244,0 -0.32514,1.12026 -1.00759,0 1.5291,-4.72569 1.22005,0 1.53553,4.72569 z m -0.55369,-1.95723 -0.5795,-2.10532 -0.56978,2.10532 1.14924,0 z" />
      <path
         id="path3369"
         style="font-style:normal;font-variant:normal;font-weight:bold;font-stretch:normal;font-size:6.59279442px;font-family:'Droid Sans';-inkscape-font-specification:'Droid Sans Bold';letter-spacing:-0.2px;fill:#4d4d4d;fill-opacity:1"
         d="m 303.75892,914.65356 0,-4.70638 0.99793,0 0,3.88229 1.71258,0 0,0.82409 -2.71051,0 z" />
      <path
         id="path3371"
         style="font-style:normal;font-variant:normal;font-weight:bold;font-stretch:normal;font-size:6.59279442px;font-family:'Droid Sans';-inkscape-font-specification:'Droid Sans Bold';letter-spacing:-0.2px;fill:#4d4d4d;fill-opacity:1"
         d="m 308.40372,914.65356 -0.99471,0 0,-3.87584 -1.18143,0 0,-0.83054 3.35435,0 0,0.83054 -1.17821,0 0,3.87584 z" />
      <path
         id="path3373"
         style="font-style:normal;font-variant:normal;font-weight:bold;font-stretch:normal;font-size:6.59279442px;font-family:'Droid Sans';-inkscape-font-specification:'Droid Sans Bold';letter-spacing:-0.2px;fill:#4d4d4d;fill-opacity:1"
         d="m 309.56863,914.19323 q 0,-0.1513 0.0419,-0.25431 0.0451,-0.10624 0.12233,-0.17062 0.0773,-0.0644 0.18027,-0.0933 0.10301,-0.029 0.22212,-0.029 0.11267,0 0.21247,0.029 0.10301,0.029 0.18027,0.0933 0.0773,0.0644 0.12233,0.17062 0.0451,0.10301 0.0451,0.25431 0,0.14486 -0.0451,0.24787 -0.0451,0.10301 -0.12233,0.17062 -0.0773,0.0676 -0.18027,0.0966 -0.0998,0.0322 -0.21247,0.0322 -0.11911,0 -0.22212,-0.0322 -0.10301,-0.029 -0.18027,-0.0966 -0.0773,-0.0676 -0.12233,-0.17062 -0.0419,-0.10301 -0.0419,-0.24787 z" />
    </g>
  </g>
</svg>
