<?xml version="1.0" encoding="UTF-8" standalone="no"?>
<svg
   xmlns:dc="http://purl.org/dc/elements/1.1/"
   xmlns:cc="http://creativecommons.org/ns#"
   xmlns:rdf="http://www.w3.org/1999/02/22-rdf-syntax-ns#"
   xmlns:svg="http://www.w3.org/2000/svg"
   xmlns="http://www.w3.org/2000/svg"
   version="1.1"
   id="svg3844"
   height="31"
   width="17">
  <defs
     id="defs3846" />
  <metadata
     id="metadata3849">
    <rdf:RDF>
      <cc:Work
         rdf:about="">
        <dc:format>image/svg+xml</dc:format>
        <dc:type
           rdf:resource="http://purl.org/dc/dcmitype/StillImage" />
        <dc:title></dc:title>
      </cc:Work>
    </rdf:RDF>
  </metadata>
  <g
     transform="translate(-301,-894.36218)"
     id="layer1">
    <path
       id="path3799"
       transform="translate(301,901.36218)"
       d="m 3.5,1 -3,2.5 C 1,4 2.5,5 1.5,7 0.5,9 0,12 2,14 c 2.5,2.5 5.5,0.5 6.5,2.5 1,-2 4,0 6.5,-2.5 2,-2 1.5,-5 0.5,-7 -1,-2 0.5,-3 1,-3.5 L 13.5,1 c -2,1 -2.5,2 -5,0 -2.5,2 -3,1 -5,0 z"
       clip-path="none"
       style="color:#000000;display:inline;overflow:visible;visibility:visible;opacity:1;fill:#ffffff;fill-opacity:1;fill-rule:evenodd;stroke:#4d4d4d;stroke-width:1;stroke-linecap:round;stroke-linejoin:round;marker:none;enable-background:accumulate" />
    <rect
       y="894.36218"
       x="301"
       height="31"
       width="17"
       id="rect3803"
       style="color:#000000;display:inline;overflow:visible;visibility:visible;opacity:0;fill:#000000;fill-opacity:1;fill-rule:nonzero;stroke:none;stroke-width:1;marker:none;enable-background:accumulate" />
    <rect
       ry="0.99999738"
       rx="1"
       y="894.36218"
       x="301"
       height="7.000071"
       width="17"
       id="rect4807"
       style="color:#000000;clip-rule:nonzero;display:inline;overflow:visible;visibility:visible;opacity:1;isolation:auto;mix-blend-mode:normal;color-interpolation:sRGB;color-interpolation-filters:linearRGB;solid-color:#000000;solid-opacity:1;fill:#ffffff;fill-opacity:1;fill-rule:evenodd;stroke:none;stroke-width:1;stroke-linecap:round;stroke-linejoin:round;stroke-miterlimit:4;stroke-dasharray:none;stroke-dashoffset:0;stroke-opacity:1;marker:none;color-rendering:auto;image-rendering:auto;shape-rendering:auto;text-rendering:auto;enable-background:accumulate" />
    <g
       id="text4841"
       style="font-style:normal;font-variant:normal;font-weight:normal;font-stretch:normal;font-size:35.16156769px;line-height:125%;font-family:'DejaVu Sans';-inkscape-font-specification:'DejaVu Sans';letter-spacing:0px;word-spacing:0px;fill:#4d4d4d;fill-opacity:1;stroke:none;stroke-width:1px;stroke-linecap:butt;stroke-linejoin:miter;stroke-opacity:1"
       transform="scale(1.016077,0.98417739)">
      <path
         id="path3406"
         style="font-style:normal;font-variant:normal;font-weight:bold;font-stretch:normal;font-size:6.59279442px;font-family:'Droid Sans';-inkscape-font-specification:'Droid Sans Bold';letter-spacing:-0.41896001px;fill:#4d4d4d;fill-opacity:1"
         d="m 298.93293,909.94718 1.37779,0 q 0.44424,0 0.77903,0.0644 0.33479,0.0612 0.56013,0.2028 0.22534,0.13843 0.33801,0.36699 0.11589,0.22533 0.11589,0.55691 0,0.19958 -0.0483,0.37342 -0.0483,0.17383 -0.14164,0.30581 -0.0934,0.13199 -0.22856,0.22212 -0.13198,0.0869 -0.30582,0.11589 l 0,0.0322 q 0.17706,0.0386 0.32835,0.11267 0.15452,0.0708 0.26719,0.19959 0.11589,0.12555 0.18028,0.3187 0.0676,0.19314 0.0676,0.46999 0,0.32191 -0.11267,0.57623 -0.11267,0.25109 -0.32514,0.42814 -0.20924,0.17383 -0.51184,0.26719 -0.29938,0.0933 -0.67924,0.0933 l -1.66107,0 0,-4.70638 z m 0.99793,1.86389 0.51828,0 q 0.18671,0 0.31226,-0.0322 0.12554,-0.0354 0.2028,-0.10301 0.0773,-0.0676 0.10945,-0.16739 0.0354,-0.10302 0.0354,-0.23822 0,-0.27041 -0.17062,-0.3863 -0.16739,-0.1191 -0.53438,-0.1191 l -0.47321,0 0,1.04622 z m 0,0.7919 0,1.2265 0.58588,0 q 0.19637,0 0.32836,-0.0451 0.1352,-0.0451 0.21568,-0.12877 0.0837,-0.0837 0.11911,-0.2028 0.0354,-0.11911 0.0354,-0.26397 0,-0.13199 -0.0354,-0.23822 -0.0354,-0.10945 -0.12233,-0.18671 -0.0837,-0.0773 -0.22212,-0.11911 -0.13842,-0.0418 -0.34445,-0.0418 l -0.56013,0 z" />
      <path
         id="path3408"
         style="font-style:normal;font-variant:normal;font-weight:bold;font-stretch:normal;font-size:6.59279442px;font-family:'Droid Sans';-inkscape-font-specification:'Droid Sans Bold';letter-spacing:-0.41896001px;fill:#4d4d4d;fill-opacity:1"
         d="m 306.31716,909.94718 0,3.04531 q 0,0.36698 -0.11267,0.68246 -0.10945,0.31547 -0.33801,0.54725 -0.22534,0.23178 -0.56657,0.36376 -0.34123,0.13199 -0.80156,0.13199 -0.43459,0 -0.76938,-0.12233 -0.33157,-0.12555 -0.55691,-0.35411 -0.22212,-0.22855 -0.33801,-0.54725 -0.11589,-0.32191 -0.11589,-0.71465 l 0,-3.03243 0.99472,0 0,2.95839 q 0,0.26075 0.0515,0.44746 0.0515,0.18349 0.1513,0.3026 0.10301,0.11589 0.25431,0.17062 0.1513,0.0547 0.35411,0.0547 0.42171,0 0.60842,-0.24465 0.18992,-0.24466 0.18992,-0.73719 l 0,-2.95195 0.99472,0 z" />
      <path
         id="path3410"
         style="font-style:normal;font-variant:normal;font-weight:bold;font-stretch:normal;font-size:6.59279442px;font-family:'Droid Sans';-inkscape-font-specification:'Droid Sans Bold';letter-spacing:-0.41896001px;fill:#4d4d4d;fill-opacity:1"
         d="m 309.63562,913.34659 q 0,0.31548 -0.10945,0.56979 -0.10623,0.25109 -0.31548,0.43137 -0.20602,0.17705 -0.50862,0.27362 -0.29938,0.0966 -0.6889,0.0966 -0.34123,0 -0.65992,-0.0708 -0.31548,-0.0708 -0.58588,-0.21247 l 0,-0.92711 q 0.15451,0.074 0.31225,0.14486 0.15774,0.0676 0.3187,0.12233 0.16417,0.0547 0.32513,0.0869 0.16418,0.0322 0.32513,0.0322 0.16418,0 0.28007,-0.0354 0.11911,-0.0386 0.18993,-0.10302 0.074,-0.0676 0.10623,-0.15773 0.0354,-0.0934 0.0354,-0.20281 0,-0.13198 -0.058,-0.23178 -0.0547,-0.10301 -0.15773,-0.18993 -0.0998,-0.0901 -0.24466,-0.17383 -0.14164,-0.0837 -0.31869,-0.17705 -0.14808,-0.0773 -0.33157,-0.18671 -0.18349,-0.10945 -0.34767,-0.27041 -0.16096,-0.16418 -0.27041,-0.39273 -0.10945,-0.23178 -0.10945,-0.5537 0,-0.31547 0.10301,-0.56334 0.10623,-0.2511 0.29938,-0.42171 0.19315,-0.17384 0.46678,-0.26397 0.27684,-0.0901 0.61807,-0.0901 0.17062,0 0.33157,0.0225 0.16418,0.0225 0.32192,0.0644 0.16095,0.0418 0.32191,0.10301 0.16096,0.0612 0.33157,0.14164 l -0.32191,0.77582 q -0.14486,-0.0676 -0.27041,-0.11911 -0.12555,-0.0515 -0.24465,-0.0869 -0.11911,-0.0354 -0.235,-0.0515 -0.11267,-0.0193 -0.22856,-0.0193 -0.25109,0 -0.3863,0.1352 -0.13198,0.13199 -0.13198,0.35411 0,0.11911 0.0386,0.21246 0.0419,0.0901 0.12876,0.17062 0.0901,0.0805 0.22856,0.16417 0.14165,0.0837 0.34123,0.18993 0.24144,0.12877 0.44424,0.26397 0.20281,0.13199 0.34767,0.29616 0.14808,0.16096 0.22856,0.36698 0.0805,0.20603 0.0805,0.48287 z" />
      <path
         id="path3412"
         style="font-style:normal;font-variant:normal;font-weight:bold;font-stretch:normal;font-size:6.59279442px;font-family:'Droid Sans';-inkscape-font-specification:'Droid Sans Bold';letter-spacing:-0.41896001px;fill:#4d4d4d;fill-opacity:1"
         d="m 309.87336,914.19323 q 0,-0.1513 0.0419,-0.25431 0.0451,-0.10624 0.12233,-0.17062 0.0773,-0.0644 0.18027,-0.0933 0.10301,-0.029 0.22212,-0.029 0.11267,0 0.21246,0.029 0.10302,0.029 0.18027,0.0933 0.0773,0.0644 0.12233,0.17062 0.0451,0.10301 0.0451,0.25431 0,0.14486 -0.0451,0.24787 -0.0451,0.10301 -0.12233,0.17062 -0.0772,0.0676 -0.18027,0.0966 -0.0998,0.0322 -0.21246,0.0322 -0.11911,0 -0.22212,-0.0322 -0.10301,-0.029 -0.18027,-0.0966 -0.0773,-0.0676 -0.12233,-0.17062 -0.0419,-0.10301 -0.0419,-0.24787 z" />
    </g>
  </g>
</svg>
