<?xml version="1.0" encoding="utf-8"?>
<!-- Generator: Adobe Illustrator 17.1.0, SVG Export Plug-In . SVG Version: 6.00 Build 0)  -->
<!DOCTYPE svg PUBLIC "-//W3C//DTD SVG 1.1//EN" "http://www.w3.org/Graphics/SVG/1.1/DTD/svg11.dtd">
<svg version="1.1" id="Layer_1" xmlns="http://www.w3.org/2000/svg" xmlns:xlink="http://www.w3.org/1999/xlink" x="0px" y="0px"
	 viewBox="0 0 27 26.5" enable-background="new 0 0 27 26.5" xml:space="preserve">
<g>
	<path fill="#FFFFFF" stroke="#FFFFFF" stroke-width="1.9231" stroke-miterlimit="10" d="M13.5,1c-2.3,0.7-4.8,1-7.2,0.5
		C5.5,1.4,4.8,1.2,4,1.1C2.2,3.6,1.1,6.7,1,9.9C0.6,17,5.7,24.6,13.5,25.4c4.9-0.7,11.9-6.9,12.4-13.7c0.1-1.3,0-2.6-0.1-3.8
		c-0.4-2.5-1.4-4.8-2.8-6.9c-2.5,0.7-5.1,1-7.7,0.4C14.7,1.3,14.1,1.2,13.5,1L13.5,1z"/>
	<path fill="none" stroke="#FFFFFF" stroke-width="1.5" stroke-linecap="round" stroke-linejoin="round" stroke-miterlimit="10" d="
		M13.5,1c-2.3,0.7-4.8,1-7.2,0.5C5.5,1.4,4.8,1.2,4,1.1C2.2,3.6,1.1,6.7,1,9.9C0.6,17,5.7,24.6,13.5,25.4
		c4.9-0.7,11.9-6.9,12.4-13.7c0.1-1.3,0-2.6-0.1-3.8c-0.4-2.5-1.4-4.8-2.8-6.9c-2.5,0.7-5.1,1-7.7,0.4C14.7,1.3,14.1,1.2,13.5,1"/>
	<path fill="#03648e" d="M13.6,24.9c6.2-1.2,12.2-8.2,11.9-15c0-1-0.1-1.9-0.3-2.9L1.8,7c-0.4,1.7-0.5,3.4-0.2,5.1
		C2.3,18.5,7.1,24.5,13.6,24.9L13.6,24.9z"/>
	<path fill="#D40000" d="M9.6,6H2.1l0.1-0.3c0.4-1.3,1-2.6,1.8-3.7l0.2-0.3C5,1.8,5.7,2,6.4,2.1c2.2,0.4,4.6,0.2,6.7-0.5l0.3-0.1
		c0.5,0.1,0.9,0.3,1.4,0.4c2.6,0.6,5.3,0.5,7.9-0.3c0.9,1.3,1.7,2.8,2.1,4.4H9.6L9.6,6z"/>
</g>
</svg>
