<?xml version="1.0" encoding="utf-8"?>
<!-- Generator: Adobe Illustrator 17.1.0, SVG Export Plug-In . SVG Version: 6.00 Build 0)  -->
<!DOCTYPE svg PUBLIC "-//W3C//DTD SVG 1.1//EN" "http://www.w3.org/Graphics/SVG/1.1/DTD/svg11.dtd">
<svg version="1.1" id="Layer_1" xmlns="http://www.w3.org/2000/svg" xmlns:xlink="http://www.w3.org/1999/xlink" x="0px" y="0px"
	 viewBox="0 0 34 26.2" enable-background="new 0 0 34 26.2" xml:space="preserve">
<g>
	<path fill="#FFFFFF" d="M17.3,1.2c-3,0.7-6.2,1-9.2,0.5c-1-0.2-1.9-0.3-2.9-0.5C2.8,3.7,1.4,6.8,1.3,9.9c-0.5,7,6,14.6,16,15.4
		c6.2-0.7,15.2-6.8,15.8-13.5c0.2-1.3,0-2.5-0.2-3.8c-0.5-2.4-1.8-4.8-3.6-6.8c-3.2,0.7-6.6,1-9.8,0.4C18.8,1.5,18,1.3,17.3,1.2
		L17.3,1.2z"/>
	
		<path fill="none" stroke="#FFFFFF" stroke-width="1.4019" stroke-linecap="round" stroke-linejoin="round" stroke-miterlimit="10" d="
		M17.3,1.2c-3,0.7-6.2,1-9.2,0.5c-1-0.2-1.9-0.3-2.9-0.5C2.8,3.7,1.4,6.8,1.3,9.9c-0.5,7,6,14.6,16,15.4c6.2-0.7,15.2-6.8,15.8-13.5
		c0.2-1.3,0-2.5-0.2-3.8c-0.5-2.4-1.8-4.8-3.6-6.8c-3.2,0.7-6.6,1-9.8,0.4C18.8,1.5,18,1.3,17.3,1.2"/>
	<path fill="#03648e" d="M17.4,24.7c8-1.2,15.6-8.1,15.2-14.8c-0.1-1-0.2-1.9-0.4-2.9L2.4,7C1.9,8.7,1.8,10.4,2,12.1
		C3,18.4,9.1,24.3,17.4,24.7L17.4,24.7z"/>
	<path fill="#D40000" d="M12.2,6H2.7l0.1-0.3C3.3,4.4,4.1,3.2,5.1,2l0.3-0.3C6.3,2,7.3,2.1,8.2,2.3c2.9,0.4,5.8,0.2,8.6-0.5l0.4-0.1
		C17.8,1.8,18.4,1.9,19,2c3.3,0.6,6.8,0.5,10-0.3C30.3,3,31.3,4.5,31.8,6H12.2L12.2,6z"/>
</g>
</svg>
