<?xml version="1.0" encoding="utf-8"?>
<!-- Generator: Adobe Illustrator 18.0.0, SVG Export Plug-In . SVG Version: 6.00 Build 0)  -->
<!DOCTYPE svg PUBLIC "-//W3C//DTD SVG 1.1//EN" "http://www.w3.org/Graphics/SVG/1.1/DTD/svg11.dtd">
<svg version="1.1" id="Layer_1" xmlns="http://www.w3.org/2000/svg" xmlns:xlink="http://www.w3.org/1999/xlink" x="0px" y="0px"
	 viewBox="0 0 23 19" enable-background="new 0 0 23 19" xml:space="preserve">
<g>
	<path fill="#FFFFFF" d="M11.5,18.5c-6.1,0-11-4-11-9c0-5,4.9-9,11-9s11,4,11,9C22.5,14.5,17.6,18.5,11.5,18.5z"/>
	<path d="M11.5,1C17.3,1,22,4.8,22,9.5S17.3,18,11.5,18S1,14.2,1,9.5S5.7,1,11.5,1 M11.5,0C5.1,0,0,4.3,0,9.5S5.1,19,11.5,19
		S23,14.7,23,9.5S17.9,0,11.5,0L11.5,0z"/>
</g>
</svg>
