<?xml version="1.0" encoding="utf-8"?>
<!-- Generator: Adobe Illustrator 18.0.0, SVG Export Plug-In . SVG Version: 6.00 Build 0)  -->
<!DOCTYPE svg PUBLIC "-//W3C//DTD SVG 1.1//EN" "http://www.w3.org/Graphics/SVG/1.1/DTD/svg11.dtd">
<svg version="1.1" id="Layer_1" xmlns="http://www.w3.org/2000/svg" xmlns:xlink="http://www.w3.org/1999/xlink" x="0px" y="0px"
	 viewBox="0 0 30 19" enable-background="new 0 0 30 19" xml:space="preserve">
<g>
	<path fill="#FFFFFF" d="M15,18.5c-8,0-14.5-4-14.5-9c0-5,6.5-9,14.5-9s14.5,4,14.5,9C29.5,14.5,23,18.5,15,18.5z"/>
	<path d="M15,1c7.7,0,14,3.8,14,8.5S22.7,18,15,18S1,14.2,1,9.5S7.3,1,15,1 M15,0C6.7,0,0,4.3,0,9.5S6.7,19,15,19s15-4.3,15-9.5
		S23.3,0,15,0L15,0z"/>
</g>
</svg>
